<?xml version="1.0" standalone="yes"?>
<svg xmlns="http://www.w3.org/2000/svg" width="1380" height="270">
<path style="fill:#010101; stroke:none;" d="M0 0L0 270L1380 270L1380 0L0 0z"/>
<path style="fill:#4b6df7; stroke:none;" d="M3 4L3 265L264 265L264 4L3 4z"/>
<path style="fill:#ffffff; stroke:none;" d="M990 4.55402C975.402 8.20923 974 20.2522 974 33C974 36.5031 972.87 42.6628 975.603 45.3966C978.188 47.9814 983.694 47 987 47C996.998 47 1010.3 49.3292 1019.94 46.6821C1026.72 44.8214 1024.86 24.4916 1023.39 19C1019.67 5.14673 1002.4 1.44855 990 4.55402z"/>
<path style="fill:#7f7f7f; stroke:none;" d="M1007 4L1008 5L1007 4z"/>
<path style="fill:#ffffff; stroke:none;" d="M332 43L332 134C332 139.801 328.868 160.222 333.603 163.972C336.221 166.046 341.879 165 345 165L374 165L374 43L416 43L416 18L414.397 9.02777L389 8L319 8L291.603 9.02777L290 25L291.028 41.3966L302 43L332 43M480 102C491.259 105.328 513.741 105.328 525 102L525 148L526.603 163.972L538 165L567 165L567 8L525 8L525 66L480 66L480 25C480 21.0708 481.544 12.8503 478.972 9.60339C477.109 7.25046 472.617 8.00119 470 8L447 8C444.098 8.00131 439.343 7.17886 437.742 10.3179C436.006 13.7238 437 19.2881 437 23L437 52C437 87.215 433.026 125.029 437.109 159.981C438.14 168.809 462.111 165 469 165C471.803 165 476.975 165.918 478.972 163.397C481.662 160 480 151.125 480 147L480 102M602.603 9.02777C599.927 11.1473 601 17.0196 601 20L601 51L601 131C601 139.344 597.914 155.184 601.603 162.682C603.158 165.841 608.124 164.999 611 165C617.871 165.003 636.863 168.337 642.258 163.972C644.982 161.768 644 156.062 644 153L644 122L644 42C644 33.6435 647.074 17.8027 643.258 10.3179C641.657 7.17883 636.902 8.00131 634 8C627.029 7.99686 608.125 4.65494 602.603 9.02777M677 8L677 126L677 155L678.603 164.972L690 166L719 166L719 113L732.87 114.028L741.167 127L760.804 164.397L774 166L807 166L797.371 145L775 104C805.813 88.2705 808.635 35.7651 779 17.4684C751.395 0.424591 707.964 8 677 8M828 8L828 123L828 152C828 155.121 826.954 160.779 829.028 163.397C831.368 166.351 838.684 165 842 165L878 165C901.955 165 926.365 156.94 941.076 137C971.474 95.798 955.563 23.1306 903 10.6759C879.09 5.01059 852.493 8 828 8z"/>
<path style="fill:#010101; stroke:none;" d="M983 37L1015 37C1015 31.7142 1016.03 24.9304 1012.91 20.304C1007.66 12.5163 991.577 11.6674 985.728 19.2245C982.054 23.9707 983 31.3922 983 37M870 42L870 130C880.367 130 891.755 129.137 899.826 121.671C915.699 106.991 916.499 66.2523 900.907 51.1744C892.789 43.325 880.763 42.0012 870 42M42 43L42 224L224 224L224 43L143 43L143 92L182 92L182 192L83 192L83 92L122 92L122 43L42 43M719 43L719 68C719 70.6934 718.228 75.1245 720.028 77.3966C722.529 80.5549 731.49 79.1301 735 78.7145C742.251 77.8562 749.705 77.1662 754.57 70.9568C764.05 58.8585 755.121 43.835 741 43.0432C733.709 42.6344 726.302 43 719 43z"/>
<path style="fill:#ffffff; stroke:none;" d="M1015 77L1003 77C1003 72.5307 1004.91 62.3384 1001.97 58.7431C999.879 56.1821 995.802 57.4082 994.603 60.1481C992.614 64.6969 994 72.0935 994 77L983 77C983 72.5521 985.855 51.4175 977.143 54.6474C972.063 56.5311 971.711 83.9995 976.434 86.3966C984.397 90.4381 1002.06 87 1011 87C1014.31 87 1019.81 87.9813 1022.4 85.3966C1025.63 82.1678 1026.03 56.7465 1021.68 54.7616C1012.35 50.5028 1015 72.6274 1015 77M983 119C993.661 119 1004.34 119.196 1015 118.995C1018.84 118.923 1023.85 118 1023.57 113.015C1023.29 107.785 1017.85 108.008 1014 108L983 108C983 104.359 984.085 98.4855 981.972 95.3179C980.312 92.8279 976.207 92.4532 974.742 95.3179C971.461 101.737 974 114.859 974 122C974 125.147 976.182 140.286 981.972 131.681C984.092 128.531 983 122.629 983 119M977.228 140.742C973.095 142.677 973.886 148.49 978.109 149.682C987.38 152.3 1000.37 150 1010 150C1013.39 150 1018.72 150.956 1021.68 148.972C1025.9 146.15 1023.14 140.824 1018.98 140.148C1009.79 138.653 999.316 140 990 140C986.168 140 980.79 139.075 977.228 140.742M998 182L998 184C993.704 185.626 989.819 188.188 986 190.742C982.21 193.277 971.166 198.496 975.043 204.682C977.099 207.962 982.742 207 986 207C996.279 207.001 1011.07 209.736 1020.85 206.566C1024.78 205.295 1024.41 200.156 1020.85 198.603C1016.79 196.83 1010.36 198 1006 198L993 198L993 197C997.876 195.48 1010.48 190.068 1010.62 183.947C1010.78 177.488 999.124 172.053 994 170C1001.8 167.696 1015.01 172.439 1021.68 167.972C1025.28 165.563 1023.75 160.365 1019.94 159.318C1010.02 156.593 996.294 158.999 986 159C982.707 159 977.285 158.053 975.184 161.318C971.092 167.676 982.028 172.686 986 175.333C989.882 177.921 993.533 180.577 998 182M295 178L295 266L351 266C358.803 266 369.204 267.847 375.96 263.146C393.235 251.124 380 223.058 380 207C380 197.414 381.603 185.996 371.985 180.228C365.367 176.26 355.411 178 348 178L295 178M395 178L395 266L415 266C415 260.15 411.999 241.577 417.318 238.028C420.282 236.05 425.615 236.993 429 237C432.625 237.007 435.939 236.927 438.91 239.318C447.45 246.189 451.952 259.442 461.428 264.972C466.647 268.018 477.078 266 483 266C482.991 253.806 473.665 245.78 466 237C484.474 236.04 483 217.578 483 204C483 195.44 483.559 186.77 475.826 181.109C469.085 176.173 458.89 178 451 178L395 178M494 266L515 266L515 238L562 238L562 266L583 266L583 212C583 203.563 584.336 193.588 579.772 186.015C576.243 180.157 570.523 178.084 564 178.004C549.005 177.819 533.996 178 519 178C510.223 178 502.266 177.612 496.995 186.004C492.478 193.194 494 202.903 494 211L494 266M682 266L682 246L615 246L615 198L682 198L682 178L627 178C619.76 178 609.441 176.126 603.004 180.009C598.074 182.984 594.893 188.338 594.185 194C592.07 210.926 592.836 230.983 594.09 248C594.564 254.432 597.314 260.558 603.004 263.991C609.441 267.874 619.76 266 627 266L682 266M693 178L693 266L712.397 264.972L714 256L714 232L727.714 233.028L756.17 264.972L777 266C776.99 253.014 766.242 244.422 758.275 235C755.565 231.795 749.615 226.459 749.454 222C749.292 217.525 755.761 212.186 758.414 209C766.284 199.544 776.99 190.931 777 178L756.17 179.028L727.83 210.972L714 212L714 188L712.397 179.028L693 178M788 178L788 266L847 266L868.397 264.972L870 246L809 246L809 232L858 232L858 212L809 212L809 198L870 198L870 178L788 178M875 178L875 198L909 198L909 266L930 266L930 198L964 198L964 178L875 178z"/>
<path style="fill:#0101ff; stroke:none;" d="M83 191L83 192L182 192L152 191L83 191z"/>
<path style="fill:#010101; stroke:none;" d="M316 198L316 211L360 211L360 198L316 198M415 198L415 217L462 217L462 198L415 198M515 198L515 218L562 218L562 198L515 198z"/>
<path style="fill:#ffffff; stroke:none;" d="M977.228 216.742C972.835 218.796 973.693 225.207 978.109 226.566C987.242 229.379 1000.45 227 1010 227C1013.33 227 1018.67 227.967 1021.57 225.972C1025.94 222.966 1023.4 217.234 1018.98 216.279C1010.06 214.349 999.125 216 990 216C986.166 216 980.792 215.077 977.228 216.742z"/>
<path style="fill:#010101; stroke:none;" d="M316 231L316 246L363 246L363 231L316 231z"/>
<path style="fill:#ffffff; stroke:none;" d="M1015 256L997 256C993.404 256 966.208 254.553 975.743 264.397C978.257 266.992 983.748 266 987 266C996.289 266 1012.33 269.119 1020.85 265.397C1025.91 263.19 1026.33 236.907 1021.68 234.047C1012.78 228.567 1015 252.187 1015 256z"/>
</svg>
